PathFileType	4	(X/Y/Z)	32_2_110_p1_0-226_filt_butterworth.trc
DataRate	CameraRate	NumFrames	NumMarkers	Units	OrigDataRate	OrigDataStartFrame	OrigNumFrames
59.0	59.0	6	27	m	59.0	141	226
Frame#	Time	RHip			RKnee			RAnkle			RBigToe			RSmallToe			RHeel			LHip			LKnee			LAnkle			LBigToe			LSmallToe			LHeel			Neck			Head			Nose			RShoulder			RElbow			RWrist			RThumb			RIndex			RPinky			LShoulder			LElbow			LWrist			LThumb			LIndex			LPinky			
		X1	Y1	Z1	X2	Y2	Z2	X3	Y3	Z3	X4	Y4	Z4	X5	Y5	Z5	X6	Y6	Z6	X7	Y7	Z7	X8	Y8	Z8	X9	Y9	Z9	X10	Y10	Z10	X11	Y11	Z11	X12	Y12	Z12	X13	Y13	Z13	X14	Y14	Z14	X15	Y15	Z15	X16	Y16	Z16	X17	Y17	Z17	X18	Y18	Z18	X19	Y19	Z19	X20	Y20	Z20	X21	Y21	Z21	X22	Y22	Z22	X23	Y23	Z23	X24	Y24	Z24	X25	Y25	Z25	X26	Y26	Z26	X27	Y27	Z27	
141	2.389830508474576	0.33010833413828056	0.4221860436901339	1.0538014403461422	0.32267844513296245	0.4510502182544097	1.4933901235414733	0.31114834330667707	0.4710222909284577	1.9084511898533791	0.3063666453013233	0.28200394250620026	1.8882729983659465	0.3692410639464622	0.33322692693884115	1.9189861028204256	0.2973626017166817	0.572006459821672	2.0198795300951913	0.14178856690334724	0.44724611484625926	1.078256144984548	0.1401916856451723	0.5009353492730273	1.5158937440258549	0.13037617279623187	0.5056143079742643	1.942891012946669	0.14100385769233018	0.3129831599878665	1.9154584476647223	0.09613395778878908	0.35334533846042726	1.930371699319935	0.14257527091474123	0.5417690661345922	1.991367975401725	0.22481982299742023	0.4300696663733734	0.5411559684756793	0.1857677230461967	0.3862851014696669	0.30613399863087426	0.18562204003824276	0.3227626415433125	0.4289254896504043	0.3697022136235749	0.44273323193732156	0.6055780209926396	0.4116738818647533	0.4378059386884403	0.8723402598957216	0.444504442496292	0.33466616422131484	1.1064600388981476	0.4083165261477575	0.25342131568874565	1.2040953631469002	0.44205900306876167	0.2867770795980778	1.2303226112115828	0.44773144547599364	0.3356296974889415	1.2391152614912402	0.07557660926191885	0.43771140302129063	0.6266414652847758	0.06417801339318188	0.42821187068443123	0.8774288723659356	0.04600818696761155	0.38336931220955545	1.1170247992127555	0.0932809271514855	0.34525160457824455	1.207717882970398	0.04490272177596148	0.3303952736110709	1.2160759316649963	0.020653186105877745	0.32918868200141205	1.209807947460017
142	2.406779661016949	0.3301522793978396	0.42222326385104525	1.05383153305007	0.32293298681337285	0.4514211162422427	1.4940920139096088	0.3125795115573957	0.4705812187079222	1.9061665227626785	0.3065991207069237	0.2822051610518444	1.8881356003174599	0.368952553389592	0.3329634401536654	1.917597495472489	0.2973623142481242	0.5716873195269864	2.0188193634302625	0.14177635680126907	0.44714453621753364	1.07840583079959	0.14032488820781425	0.5009389168597685	1.515246085258296	0.13036657177762892	0.5056174713893118	1.942880169150571	0.14150236881304534	0.31160773028429456	1.9144537073627497	0.09615845135413524	0.35327826374581783	1.9312080195239805	0.14287399686500046	0.5418967912998327	1.9899715920332302	0.22428018039954586	0.43130269565236534	0.541908336731544	0.18573277872801128	0.38627954330257375	0.30616783502932987	0.18609953454510136	0.32316617957112176	0.4293404812259089	0.36969161713086646	0.4427571184240706	0.6055665455319296	0.41126139058551403	0.4376368588833129	0.8722582824930465	0.44414146221067874	0.33443509228803625	1.1059329868687684	0.40785362201757996	0.25236635370925764	1.2041121015373943	0.43913136703559486	0.283134048602912	1.2288692625236846	0.44785337290930133	0.3342454623105667	1.2385302413384265	0.07564454709000296	0.43752184742707123	0.6265807771236803	0.06395908809086828	0.42809037986357046	0.8785893022928601	0.04603211983974052	0.38348422145217503	1.1170471986052528	0.0917087768223844	0.3513996064267847	1.210280022433659	0.04449125046456399	0.3304306912341811	1.2156539849273535	0.020674509155081924	0.3292315426184173	1.2095171172682995
143	2.4237288135593222	0.3302759168839232	0.42200472947427325	1.0538627915796368	0.3230851435979024	0.4511852906968078	1.4945771719263943	0.31540211757183984	0.4695342651954876	1.9036126727663687	0.30603930802354495	0.28152258803631625	1.8875504688740212	0.3685666523070499	0.3325959947459861	1.9157983637408171	0.2971762837880223	0.5712695680581816	2.0172687883031073	0.14186285634849694	0.4466076059892462	1.0790543122910654	0.14037601738118974	0.5009213531871253	1.513872779605583	0.13036867488648374	0.5055643134333324	1.9428201777365979	0.14296893998327023	0.30827334925357613	1.9120847601319362	0.09618567893228122	0.3531238812220501	1.9316254491294829	0.14353237692355864	0.5402858803112918	1.988213975519732	0.22421916264618158	0.431175446314369	0.5425973564027542	0.18571508818927573	0.3862223179014883	0.30614390628025073	0.18718118930269076	0.32364369812407257	0.43036956004290405	0.36967622437655556	0.44280880328573197	0.6055370294771594	0.41020442661055856	0.437382682244193	0.8720800048679941	0.44324303438078816	0.33369162858075907	1.105369922123762	0.40780645125119613	0.2521570266529253	1.2042049902758591	0.4361772335422006	0.2794306981671533	1.2270476251958982	0.44786875589950065	0.33085238618079343	1.2369330905401248	0.07560475056710149	0.4375621890164599	0.6265635950879187	0.06331987511680982	0.42902776563460865	0.8795104640027576	0.046020336945689015	0.3833666438398165	1.1169561381604982	0.09043469202625955	0.35851873534555345	1.2132373438402688	0.04466499755823185	0.33057750907684413	1.2144782399503462	0.020382357087428235	0.3303969487873712	1.209129958320763
144	2.440677966101695	0.33038974943185023	0.42154354555986717	1.0538958501472666	0.32275938256858405	0.4494555110212649	1.4942932267930238	0.3178711686764296	0.4683918799512367	1.902371578175397	0.3048110045270377	0.28036321204721437	1.8869082771312862	0.3683483814616623	0.3322871945696029	1.9144561325183589	0.2970432853482584	0.5710473656304493	2.0160986383915005	0.14196826984474487	0.44623818339116467	1.0796254138045867	0.1403331428253948	0.5007853058447537	1.5120274901717545	0.13038072347664506	0.5054723144409886	1.9427373385052487	0.14502509783318596	0.3040183431202719	1.9090801854212964	0.09621633296954207	0.35288407004660544	1.9311210256807732	0.14502462086794254	0.5359222186210487	1.9851577198347117	0.2243298730210389	0.430669706687811	0.5435420820197521	0.18571207644243656	0.3861523962634464	0.30611111841854666	0.1885944145484628	0.32416549918323934	0.4317251334056337	0.36965782896988664	0.4428659413179394	0.6055011293368074	0.4088030841270437	0.43708067010380347	0.8718436628401298	0.4420531473483583	0.33248369134735467	1.1055539341529836	0.407931943063188	0.25211003041468083	1.2041980420781184	0.43406924689400533	0.2783945472207674	1.225776187636643	0.44748706234362035	0.3262669377536788	1.2346900481837615	0.07509834718265988	0.43873699849126324	0.6267800845099469	0.061985096715296895	0.43182614043533535	0.8797231113244529	0.04605666059869678	0.38344798117832596	1.1169345412400438	0.08916520955163304	0.36436106730100737	1.215688097294763	0.04494622512450806	0.33091398485040974	1.2127096651306541	0.019619950435213362	0.3334453129610231	1.2092664235786958
145	2.457627118644068	0.3304509631648608	0.4209848350138464	1.053920960549997	0.3218127862637652	0.4460183669463179	1.493502165467404	0.3187398482575336	0.46810310249026055	1.9034555645749838	0.3041169455008239	0.2791653651926599	1.8863779553612987	0.3685846234762443	0.33214108778214535	1.9139387594972417	0.2970203593424452	0.5710538413683339	2.0156971136652366	0.14208440107845444	0.4460467794176841	1.0802164588656917	0.14015380729756294	0.5004687440321673	1.5106063382240047	0.13039472582396477	0.5053926512559103	1.9426862881930531	0.14656818079059228	0.3009273640942534	1.9068989197036634	0.0962534388122828	0.35266100169103853	1.9302225022899802	0.14704077747556243	0.5301160048982486	1.9813314549609107	0.2244310429475378	0.43030037491543166	0.5447267594001273	0.18571641408954434	0.38611160816043094	0.3060933000172397	0.18965738774593124	0.32455670774541895	0.43268044020970586	0.36964290534247646	0.4428938995105966	0.6054793460733332	0.40772991227858824	0.4368166761278294	0.8717129297927118	0.4410512459135384	0.33158099133912444	1.1068700856004687	0.408010321188978	0.25229203399357075	1.2042452335764777	0.43304313100319564	0.27981361291069173	1.2251815851090997	0.44646590326171925	0.32191265858584206	1.2325130152743666	0.07384781930733539	0.44176767703783476	0.6273900529021167	0.060270764691452046	0.4357501991133522	0.8797100269723539	0.046048266904600836	0.38343475910636104	1.116889462104717	0.0875579607575086	0.36636590262905994	1.2165779050886767	0.045056033646998596	0.3313543883134122	1.2108009791245364	0.018624150939894446	0.33758512494765436	1.2101593923583354
146	2.4745762711864407	0.3303331351109813	0.42082737452322566	1.0539415268253056	0.3206248163189752	0.44205672962114434	1.492940567482607	0.3180700716151377	0.4697457880774578	1.9064396422993948	0.3042802558609347	0.2783695145890914	1.8860393692756134	0.3693086452873612	0.3321261182873243	1.9139075983243043	0.29705771711125706	0.5711729363165984	2.0157805419114165	0.14207713829032184	0.4458943204300347	1.080749059544338	0.13989250981035065	0.5000732627004113	1.5100445794944246	0.13040755853545233	0.5053611073120343	1.9426855482418146	0.14695947239353715	0.29968396333020514	1.9060222298774125	0.09628175299465505	0.35261177695610746	1.9296976628464146	0.1484547751586542	0.5260765149144493	1.9788592357398642	0.224467474338449	0.430166181134633	0.5456630477556533	0.1857214731338091	0.38609927100375885	0.30608737082481874	0.19004304005755207	0.32477855964722274	0.4326998011216695	0.36963180931014944	0.44288313838818133	0.605476655730085	0.4073026485760314	0.43656987323374663	0.8719585371791894	0.4402492711713371	0.332311641864049	1.1088532731850818	0.4076236822895678	0.2535599633102982	1.204815489487801	0.4328317777319649	0.28153824994107046	1.224932118746874	0.44505176368660393	0.3180005132235328	1.230596382556768	0.07220531071312737	0.4458037209087847	0.6282194095854422	0.05895426558791754	0.43883109803855147	0.8798913294087566	0.04577081119882816	0.3824029629826122	1.1164937925140181	0.08570091866045065	0.36503692689053646	1.216086278283179	0.04498736976903976	0.33175541910033696	1.20924291762862	0.017697546000744132	0.3408017304558402	1.2112083227912147
